<?xml version="1.0" encoding="UTF-8"?>
<svg id="Layer_1" xmlns="http://www.w3.org/2000/svg" version="1.1" viewBox="0 0 215 442">
  <!-- Generator: Adobe Illustrator 29.3.0, SVG Export Plug-In . SVG Version: 2.1.0 Build 146)  -->
  <defs>
    <style>
      .st0 {
        opacity: .3;
      }
    </style>
  </defs>
  <g class="st0">
    <path d="M177,179c-.5,3.1-5.6,1.6-6,2,1.2,6.7,2.3,15.3-1.1,21.4-4.5,7.9-16,12.3-24.9,11.6-.3-1.2,1.8-1.6,2.7-1.8,7.4-1.8,14.2-1.9,19.3-8.7,4.1-5.5,4.6-19.8-.5-24.6s-10.9-8.4-14.5-9.5-15-.6-18.6,3.5-4.7,10.1-5.3,12.7.4,5-1.2,7.3c2.5.6,1.6-.6,2.2-1.3.9-1.1,1.6-2.3,2.9-3.2,3.3-2.3,10.6-2.3,14.5-1.6s2.9-.9,2.5,2c-3.2-1.9-12.5-.8-15.4,1.1s-3.9,6.4-4.6,9.4.9,2.9-2,2.4c1.8-3.4-1.2-6.8-1.1-10.5s2.9-13.9,5.2-17.9c4-6.9,14.1-7.6,21.2-6.4,9,1.5,14.5,14.1,24.7,11.8Z"/>
    <path d="M105,146c0,7.1-8,10.1-12.5,14s-13.9,14.2-15.3,20.7c-3,13.4,8.3,22.6,20.8,22.3-.3-2.3-3.9-2.3-4.8-3.2s-2.8-3.9-3-4.4c-3.3-5.9-1.7-14.2,2.4-19.3s3.8-4,6.5-4c-3.6,4.3-7.7,7.8-8.8,13.7s.8,8.2,2.3,10.3,6.3,5.2,7.4,5.6c1.8.6,3.2.4,5,.6l.6,1.9c6-.4,11.7-.3,16.8,3.1s2.9,1.8,2.1,2.9c-3.7-3.7-9.5-2.7-14-5l-7,.7-3-2.7c-1.5,1.8-2.7,2.1-5,2-7.4-.4-15.5-4.5-18.7-11.3-4.6-9.7.9-20.6,7.2-28.2s13.7-10.6,18.5-17.5,0-2.5,2.5-1.9Z"/>
    <path d="M85,158l-2.5-10c-6-12.8-20.5-23-34.5-15.4s-4.3,2.8-5.1,3.9-.9,2.5-1.5,3.5c-1.2,1.9-2.7,2.5-3.3,5.7-1.9,10.8,3.7,17.8,13.8,20.8l10,2.5c-13.7,1.4-30.5-8.7-26-24-2.2-.3-1.6,0-2.2,1.3s-1.1,2.7-2.3,3.7c-1.3.4-2-.2-1.5-1.5,3.4-9.1,20.4-21.8,30.5-20.5,13.2,1.8,26.6,16.3,24.5,30Z"/>
    <path d="M120,23c-.4,1.7,1.5,2.6,1.9,3.6.7,2.3-.6,5.9-1.7,8.1-3,6.3-8.2,11.3-12.3,16.8-8.8,11.8-21.7,27.2-23,43-1.2,14.6,2.3,28.7,14,38,.2.7-1.1.7-1.5.5-.8-.4-6.6-6.5-7.4-7.6-1.1-1.7-2.9-5.4-3.7-7.3-10.1-25.7,2.9-43.9,17.1-64,4.7-6.6,11.2-12.7,14.7-20.3s1.7-7.2-1.2-9.2l3-1.5Z"/>
    <path d="M177,127l-4-1c.6,3.7,3.5,6.8,4,10.5,1.5,11.6-8.4,20.9-18.5,24.5l6-4c9.8-7.9,15.4-18.1,6-29s-7.5-4.5-14-4-5.6.8-6.9,1.1c-9.6,2.5-18.7,13.2-17.6,23.3.5,4.9,3,11,7,14l-5.5-4.5c-6.7-13.6-.8-28.4,13.4-33.5s19.3-3.3,26.4-1.3,4.1,1.6,3.7,3.8Z"/>
    <path d="M183,305c0,0,.9.3,1-.6,1.5-9.6-4.1-15.3-12.3-18.6-6-2.4-12.3-3.6-18.7-1.8l5.5-2c12.7-.3,30,6.7,27.5,22,7.1-2.7,12.1-1.8,11,7-3,.5-1.6-.7-2-2.5s-.9-2.3-1-3.5c-6.6-1.6-8,2.5-12,5.4s-15.2,9.8-20.5,10.5c-10.3,1.3-20.5-2.3-22.5-13.5-.4-2,.3-2.7,1.2-.2,2.3,6.3,4.9,10.5,11.8,12.2s3.9.6,4.5.6c7.9-.3,18.1-5.9,24-11.1s1.6-2.2,2.5-4c-5.7,2.3-12.1,5.7-18.5,5-5.6-.7-11.6-4-12.5-10,2.2,1.3,2.8,3.8,5,5.5,7,5.2,18.7,2.5,24.5-3.5l1.5,3Z"/>
    <path d="M93,427c-3.9.3-3.3-4.9-3-7.5,1.3-9.4,21.7-30.2,27.8-40.2,7.5-12.3,16.7-33.4,12.9-47.6s-4.6-10-8.3-14.7-2.7-2-1-3c10.3,10.4,13.7,21.9,10.3,36.3-4.3,18.2-14.7,33.6-25.8,48.2-4.5,5.9-13.8,14.1-14.1,22s1.2,4.1,1.1,6.5Z"/>
    <path d="M32.1,322.1l-2.1,1.9,1-4c7.1-1.4,12.3,3,18.7,4.7s12.1,2.7,18.5,1c18.6-4.9,20.5-28.9,6.7-40.3,1-.8,2.3,1.3,3,2,3.7,3.5,5.5,6.2,6.8,11.2,2.1,7.8.4,15.5-4.8,21.8s-7.9,7-11.5,7.5-11.7.4-15,0-19.3-8-21.4-5.8Z"/>
    <path d="M111,302c-4.4-1.8-.3-6.8,2-8.5,5.2-3.8,12.3-5.5,17-10s5.7-9.6,6-12c.6-4.9.2-9.4-2.5-13.5s-3.3-2.5-3.7-4.8c-2.7-.6-4.4-2.6-6.8-3.7s-8.4-2.3-7-3.5c12,.4,23.8,11.9,22,24.5s-2,6.3-2.5,7.5c-1.9,4.7-5.5,7.6-9.6,10.4s-15.3,5.9-15,13.5Z"/>
    <path d="M77,343c-2.6-.1-3.7-2.6-6.5-3-5.6-.8-11.2,1.8-12.5,7.5l2.5,7.5c.7,1.2,6.5,2.7,8.1,2.9,13.8,1.6,24.2-12.6,29.3-23.7l3.2-12.3c.6,8.9-4.4,17.9-9.5,25-7.7,10.4-19.4,17.7-32,10.1-1.2-4.5-4.7-5.9-3-11.1,2.9-9.3,15.1-10.6,20.5-2.9Z"/>
    <path d="M182,245c-2.2.4-2.6-.3-4-1.5-2.6-2.3-1.4-3.4-2.4-5.6s-2.4-5-3.3-6.7-7.3-11-7.8-11.3c-2.5-1.6-9.9-3.2-12.9-2.9-4.6.5-7.8,2-11.5,4.5s-1.9,2.8-3,1c1.4-.6,1.6-2.8,2.2-3.3s7.5-3.8,8.5-4c8.2-1.4,16.7,1.1,21.8,7.8,5.1,6.8,6.6,15.8,12.5,22Z"/>
    <path d="M112,290l-6.3-.2c-3-1.8-6.9-2.3-9.6-4.4-5.7-4.2-9.2-15.3-7-22l-2.1-3.5,1.8-.2,2.3-5.8,2.8-.2,5.6-6.9c1.4.9.3,2.6-.5,3.5-2.2,2.8-5.1,5.8-6.8,9.2s-3,10.3-2,13.7,3.5,6.4,4.4,7.6c4,5.3,11.3,7.3,17.5,9Z"/>
    <path d="M116,202c-1.2.3-2.7,0-2-1.5s4.6-5,5.9-7.1,3.9-8.9,4.1-11.9-.7-4.9-1.2-6.8c-1.7-5.7-5.3-10.8-10.8-13.2s-8.1-1.5-10-4.5c11.9,1.4,19.3,6.2,22.5,18s1.6,4.9,1.6,6.5c0,2.5-3.2,11.2-4.6,13.5s-5.5,3.8-5.5,7Z"/>
    <path d="M133,216c.5,2.8,2.6,5.9,2.8,8.7s-2.6,3.9-1.8,6.3c1.6-.4,2.1-2.2,3.7-2.8,7.3-3,18.6,1.6,20.3,9.8-2.8.1-3.1-2.8-5-4.5s-6.4-4.2-7.4-4.2l-8.4,1.8-1.6,4.9c-1,0-.3-1.5-.6-2.3-.5-1.3-1.4-1.9-2.9-1.7l-.5,2.9-1.5-.9v2.9c-6.4,3.1-11.5,7.5-19,6.1-.2-1.3,2.7-1.5,3.7-1.8,2.7-.6,5.3-.6,8-2s6.7-5.2,7.8-6.2c2.6-2.7,3-6.8,2.5-10.5s-4.6-7,0-6.5Z"/>
    <path d="M124,127c-1.3.2-1.9-2.7-2-3.5-.8-8.2,1.8-18.6,7-25s22.2-18.9,32.5-10.5c1.8,1.4,1.7,1.6,0,3-5.4-5.6-12.2-4.6-18.8-1.8-13.2,5.7-22.8,23.7-18.7,37.8Z"/>
    <path d="M84.5,263c.7,0,3-2.9,2.5,1-7.5,1.8-14.8,1.2-22.3-.2s-4.2-2.5-6.6-.9l-.2-1.7-6.7-2.4-.6-1.8c-1.1,1.2-2.8.9-4.1,1.9s-1,2.3-1.9,3.1c-2.6-1.7-.9-3.6.5-5.5l6-.4.5-7,1.5,4.5c-1.3,1.8.3,4.1,2,5s2.4.3,3.3.7c2.6,1,8.8,3.8,11.2,3.8,4.7,0,10.5.5,15,0Z"/>
    <path d="M41.9,204.1l.4,1.6,1.6.4c-.3,4,4.1,8,7.2,10.3,6.7,5.2,15.7,7.3,23.7,3.7s3.3-2.2,5.3-3.7,2-2.7,3-1c-2.7,2.7-5.2,5.8-8.9,7.1-10.5,3.5-22.1-.7-29.1-9s-2.3-4.3-3.5-5.5-3.3-.2-2.5-4h2.9ZM40.5,205c-.6,0-.6,1,0,1s.6-1,0-1Z"/>
    <path d="M179,250c-1.1,2.7-1.5,7.3-3,9.5-2.6,3.9-7.5,6.2-12,7-8.1,1.3-17.1-4-23-9-.3-1.9.4-1.9,2-1,3.2,1.9,6.1,5,9.7,6.3s10.1,1.8,13.6,1,6.2-2.8,6.5-3c1.4-1.4,3.2-6.5,4-8.5s-.7-2.7,2.2-2.3Z"/>
    <path d="M78,203c0,2.1-2,.6-3,.5-3.8-.5-7.7-.9-11.5-1.6-5.6.2-3.3,3.9.1,5.9s6.6,2.1,7.9,2.1c2.1,0,5.4-3.9,6.5-3l-4.5,4c-7.8.9-19.8-1.1-14-11.1,6.6-.9,12.2,1.5,18.4,3Z"/>
    <path d="M155,190c2.8,1,2.3,6.1,2,8.5-.7,7.4-9.7,9.6-15.8,11.3l-7.3-1.4,9.3-1.7c9.4-2.5,13.1-6.8,11.7-16.8Z"/>
    <path d="M75,105c-2.9.4-1.8-.5-2-2.5-.3-3.6-4.2-17.6-7-19s-8.9.5-11.5,2.5-2.9,3.5-4,4-2-.4-1.5-1.5c1.1-2.2,8.2-6.8,10.7-7.3,8.1-1.8,10,2.9,12.1,9.5,1.5,4.6,1.7,9.7,3.2,14.3Z"/>
    <path d="M79,234l-4.7,1.8c-2.6-.6-9.5,2.2-10.2,4.8s1.3,4.4,2.1,5.7c1.4,2.3,4,2.6,1.9,5.6,6.3.9,13.4-1.9,15-8.5s-1-2.9,2-2.5c-1.4,1.6-.2,2.9-.5,4-1.3,5.7-8.5,9.3-13.9,9.9-4.9-3.9-13.7-13.1-6.6-18.4s9.6-2.5,15-2.5Z"/>
    <path d="M106,92l5-5.5c5.8-7.6,8-18,4-26.9l-2-.6c-.5-2.2.7-2.6,2.5-2s2,2.7,2.3,3.7c3,10.9-1.2,26.1-11.8,31.3Z"/>
    <path d="M73,155l-5.5-7c-4.2-4.8-7.5-5.8-14-5s-7.7,2-8.5,2.5-4.8,6.3-5,2c4.6-4.7,13.9-7.8,20.3-6.3s5.8,2.4,6.7,3.3c2.5,2.6,4.1,7.4,6,10.5Z"/>
    <path d="M147,348l4.5,9c4.6,3.2,10.4,4.9,15.8,2.8s3-4.9,5.7-1.3c-10,9.6-25.3,3.4-26-10.5Z"/>
    <path d="M76,198c-6.2-5.2-14.2-8.9-22.5-8s-4.2,1-4.4,1.2c-.3.2,0,1.2-.4,1.5-.5.6-1.8.4-2.3,1.2s-.2,2.3-.7,2.9-2.5-.1-1.8,2.2c-4.4.6-.6-4.5.5-6,3.4-4.2,9.7-5.6,15-5.1s10.4,4,13.8,6.2,2.9,2,2.6,3.9Z"/>
    <path d="M57,296c-3.6,5.6-8.9,14.5-6.9,21.4s3.3,2.9,3.9,4.1c1.3,2.7-3.3.9-4.5-.5-5.1-5.8-.4-14.5,2.6-20.4l4.9-4.6Z"/>
    <path d="M98,206c-3.1,3.3-8,6.2-9.8,10.7-2.6,6.4-.7,8.7,1.4,14.2s1.4,3.2-.6,3.1c-.8-3-3.2-5.4-3.8-8.7-.9-5.1,2.4-12.9,6.3-16.3v-1.9c2.2,2.1,4-1.3,6.5-1.1Z"/>
    <path d="M112,273l5.5-6.9c.8-3.6,1.1-7.8-1.1-11s-5.3-2.8-5.5-6c4.7-.3,8.7,6.5,9,10.5s-1.8,13.7-8,13.5Z"/>
    <path d="M58,286l-10.8,7.2c-.8,2.3-2.6,3.5-3.7,5.8-3,6.5-1.5,13.9,2.5,19.5-1.9,1.9-3.9-2.7-4.5-4.5-4.9-13.4,3.9-24.5,16.5-28Z"/>
    <path d="M103,197c-.2-2.1,1.8-3,2.5-5,1.4-3.7,2-10.7,1.5-14.6s-1-2.5-2-3c-2-1-4.7.8-4-2.5,8.7-1.2,8.9,9,7.8,15.3s-3.6,12-5.8,9.7Z"/>
    <path d="M110,273c-.9.9-4.5-2.6-5-3.5-4.2-6.1-1.9-15.9,3.5-20.5,1.6.9,0,2.6-.5,3.5-.8,1.6-2.5,3.4-2.9,5.1-1.4,6.2.8,10.9,4.8,15.3Z"/>
    <path d="M146,109c3.5,3.3,5.7,2.1,9-.5s7-7.8,4.1-12l2-1,2,3c-1.3,6.5-7.3,14.6-14.6,13.5s-2.7-1.2-2.5-3Z"/>
    <path d="M66,104c.7.6-4.2,4.5-5.7,4.8-8,1.7-16.2-2.5-15.2-11.2l1.9-1.6c-.6,3.2,1.6,9.6,4.7,10.8s7.3,1.5,10.3-.3,1.9-3,4-2.5Z"/>
    <path d="M160,240c-.6,7.3-10,6.8-15.5,6s-1.5-.4-2-1.1l-3.5-.5,3-2c3.3,1.3,12.3,2.8,14.8.4s.5-3.5,3.2-2.8Z"/>
    <path d="M98,390c-1,1-5.5-3.6-5.9-4.6-.8-2.6-.6-9.1-.1-11.8,1-6.3,7.3-15.9,10.5-21.5l-8,18c-1,3.9-2.2,8.3-1.3,12.4s4.6,4.4,4.8,7.7Z"/>
    <path d="M155,341h-2c9.6-9.8,23.3-4.8,18,10h-3c-.6-1.9,1.5-2.3,1.9-3.6,2.7-9.4-9.6-13.7-14.9-6.4l2,.5,1,4.5-3.9-1.5.9-3.5Z"/>
    <path d="M35,265c-4.7.3-8.2,6-6.9,10.4,2.2,3,6.5,1.8,8.9-.4v2c-4.8,2.3-11.1,3.6-11.1-3.5s1.1-5.6,1.6-6.5c1-2,6.6-6,7.5-2Z"/>
    <path d="M97,352c.4-7.2,6.5-14.7,12-19l-12,19Z"/>
    <path d="M159,149l6.8-11.7,1.7-10.3c2.2,1.5,1.3,2.1,1,4-1,6-2,11.1-6,16s-1.7,2.4-3.5,2Z"/>
    <path d="M112,105l-.5-3,4-16c3.3,0,0,10.6-.7,12.3s-2.9,4.1-2.8,6.7Z"/>
    <path d="M66,232l-9,6.5-2,6.5-3-1c1.8-5.8,7.6-11.5,14-12Z"/>
    <path d="M185,163c.4,3,.1,2.1-1.3,3.2-3.3,2.6-6.6,4.9-9.7,7.8l6.5-9,4.5-2Z"/>
    <path d="M184.1,267.9l6.9,5.1c-4.3-.2-9.6-3.2-9-8,2.2-.2,3.3,1,2.1,2.9Z"/>
    <path d="M193,166c.6,2.4-1.5,2.2-3.1,3.4s-3.9,3.4-5.9,3.6c2.2-2.6,5.1-7.3,9-7Z"/>
    <path d="M80,55c0,1.2,0,2.3,0,3.5s.7,3.8-1,3.5c-.5-2.7-2.8-3.9-2-7h3Z"/>
    <path d="M144,376c2.7-.5,7.3,3.7,3.5,5s-4.1-4.5-3.5-5Z"/>
    <path d="M142,105l2.5-2.9,3.5,3.4c-2.4,3.4-3.3-.5-6-.5Z"/>
    <path d="M38,185c.2,1.7-2.3,1-3.5,1-1.8,0-3.7,0-5.5,0l1.5-3c2.2,1.4,4.9,2.2,7.5,2Z"/>
    <polygon points="190.5 260 197 264.5 190 262.5 190.5 260"/>
    <polygon points="41 269 40 274 38 274 38 269 41 269"/>
    <rect x="70" y="344" width="3" height="4"/>
    <polygon points="60.5 99 64 100.5 60.5 102 59 100.5 60.5 99"/>
    <rect x="137.8" y="78.2" width="5.5" height="2.5" transform="translate(20.9 187.8) rotate(-71.6)"/>
    <rect x="74.5" y="369.8" width="3.5" height="2.8" transform="translate(-240.2 162.7) rotate(-45)"/>
    <polygon points="33 180 33 181 29.6 182 28 180 33 180"/>
    <path d="M93,244c-.7,1.3-1.3,2.4-1,4h-1s0-4,0-4h2Z"/>
    <polygon points="92 253 91 253 91 249 93 250.5 92 253"/>
    <path d="M102,241c-.2,2.5-4.1-.1-5.3-.2l-3.7-2.8,9,3Z"/>
    <polygon points="127 132 125 132 124 128 125 128 127 132"/>
    <rect x="106" y="242" width="3" height="1"/>
    <polygon points="39 181 39 183 37 181.5 37 181 39 181"/>
    <polygon points="92 236 92 238 90 236.5 90 236 92 236"/>
    <rect x="67" y="231" width="3" height="1"/>
    <rect x="48" y="201" width="1" height="2"/>
    <rect x="139" y="93" width="2" height="1"/>
    <path d="M132.5,245c.6,0,.6,1,0,1s-.6-1,0-1Z"/>
    <path d="M136.5,247c.6,0,.6,1,0,1s-.6-1,0-1Z"/>
    <path d="M91.5,241c.6,0,.6,1,0,1s-.6-1,0-1Z"/>
    <path d="M140.5,251c.6,0,.6,1,0,1s-.6-1,0-1Z"/>
    <path d="M60.5,254c.6,0,.6,1,0,1s-.6-1,0-1Z"/>
    <path d="M63.5,255c.6,0,.6,1,0,1s-.6-1,0-1Z"/>
    <path d="M57.5,256c.6,0,.6,1,0,1s-.6-1,0-1Z"/>
    <path d="M140.5,237c.6,0,.6,1,0,1s-.6-1,0-1Z"/>
    <rect x="75.9" y="315.7" width="2.1" height=".7" transform="translate(-200.9 147) rotate(-45)"/>
    <path d="M63.5,167c.6,0,.6,1,0,1s-.6-1,0-1Z"/>
    <path d="M54.5,205c.6,0,.6,1,0,1s-.6-1,0-1Z"/>
    <path d="M45.5,201c.6,0,.6,1,0,1s-.6-1,0-1Z"/>
    <path d="M132.5,214c.6,0,.6,1,0,1s-.6-1,0-1Z"/>
  </g>
</svg>