<?xml version="1.0" encoding="UTF-8"?>
<svg id="Layer_1" xmlns="http://www.w3.org/2000/svg" version="1.1" viewBox="0 0 330.9 324">
  <!-- Generator: Adobe Illustrator 29.3.0, SVG Export Plug-In . SVG Version: 2.1.0 Build 146)  -->
  <defs>
    <style>
      .st0 {
        fill: #fff;
      }
    </style>
  </defs>
  <path class="st0" d="M307.2,178.6l-1-1-2.5,23.3-2.3,9.1-.8-4.5c.6-4.3,2.3-9,2.7-13.2s.4-1.7-.4-1.6c-2.5,11.2-5.8,23.1-10.7,33.5-.9,1.8-1.8,4.3-3.3,5.6,6.3-16.2,12.4-32.7,14.4-50.1,2.7-23-1.3-47.3-9.3-68.9-6.6-18.1-20.1-35-33.7-48.5.5-.8,1.1.2,1.5.5,1.9,1.6,7.1,7.8,8.5,8.5s.8,0,.7-.2c-12.4-14.9-29.5-25.7-47-33.7-38-17.3-78.2-18.6-116.5-1.3-5.6,2.5-32.4,17.1-35.3,20.7s-.3,1.5-.8,2.2c-3,4.2-9.8,10-13.5,14.5-31.3,37.1-41.2,85.6-25.8,132.1,3.1,9.2,8.1,17.6,8.9,27.6-3-3.7-5.1-8.6-7-13.1s-4.1-10.3-5.7-15.1-2-8.3-2.3-8.6c-1-1-.8,1.2-1.4,1,.3-3.2-1.9-7.6-2-10.4-.5-18.3-2.2-36.2,1.6-54.4s22.5-55.1,40.7-72.9c3.9-3.8,9.7-7,14-10.6s3.8-4.2,5.8-5.8c7.4-5.9,24.1-13.6,33.3-16,16.7-4.4,36-8.5,53.2-7.7,49.1,2.5,96.3,30.2,119.3,73.9s17.7,41,17.6,63.1c0,7.4-.8,14.6-1,22Z"/>
  <path class="st0" d="M21.7,146.1l1,1,2.5-23.3,2.3-9.1.8,4.5c-.6,4.3-2.3,9-2.7,13.2s-.4,1.7.4,1.6c2.5-11.2,5.8-23.1,10.7-33.5.9-1.8,1.8-4.3,3.3-5.6-6.3,16.2-12.4,32.7-14.4,50.1s1.3,47.3,9.2,68.9c6.6,18.1,20.1,35,33.7,48.5-.5.8-1.1-.2-1.5-.5-1.9-1.6-7-7.8-8.5-8.5s-.8,0-.7.2c12.4,14.9,29.5,25.7,47,33.7,38,17.3,78.2,18.6,116.5,1.3,5.6-2.5,32.4-17.1,35.3-20.7s.3-1.5.8-2.2c3-4.2,9.8-10,13.5-14.5,31.3-37.1,41.2-85.6,25.9-132.1-3-9.2-8.1-17.6-8.9-27.6,3,3.7,5.1,8.6,7,13.1s4,10.3,5.7,15.1,2,8.3,2.3,8.6c1,1,.8-1.2,1.4-1-.3,3.2,1.9,7.6,2,10.4.5,18.3,2.2,36.2-1.6,54.4s-22.5,55-40.7,72.9c-3.9,3.8-9.7,7-14,10.6s-3.8,4.2-5.8,5.8c-7.4,5.9-24.1,13.6-33.3,16-16.7,4.4-36,8.5-53.2,7.7-49.1-2.5-96.2-30.3-119.3-74-10.2-19.4-17.6-41-17.6-63.1s.8-14.6,1-22Z"/>
</svg>