<?xml version="1.0" encoding="UTF-8"?>
<svg id="Layer_1" data-name="Layer 1" xmlns="http://www.w3.org/2000/svg" viewBox="0 0 773.62 612.77">
  <defs>
    <style>
      .cls-1 {
        fill: #3a4fa2;
      }
    </style>
  </defs>
  <path class="cls-1" d="M313.62,409.64c-.35,0-2.19-2.87-1.3,1.29,1.76,8.16,5.82,19.2,8.52,27.45.55,1.67,3.1,10.16,3.87,10.27l325.39.14c7.75,3.16,14.23,11.2,15.43,19.53,1.47,10.18-5.25,22.85-15.02,26.45-.89.33-5.89,1.78-6.21,1.78h-31.47s6,6.49,6,6.49c38.12,51.92-14.57,119.92-74.93,95.91-36.56-14.54-50.93-60.98-28.8-93.74,2.05-3.04,4.66-5.73,6.82-8.66h-126.88c11.34,13.13,19.26,29.64,18.01,47.48-3.31,47.46-53.65,74.76-95.26,51.24-31.92-18.04-42.13-62.3-19.09-91.67,1.11-1.41,7.56-6.82,6.42-8.06-.22-.24-1.06.67-2.05.5-10.53-1.9-19.11-10.36-22.7-20.2-37.2-116.48-74.22-233.02-112.36-349.19-3.31-10.09-7.58-20.3-10.54-30.45-.31-1.06-.17-2.18-.22-3.25-22.79-1.08-46.82,1.41-69.47-.02-21.54-1.37-32.32-26.46-19.44-43.46,5-6.6,13.64-9.16,21.47-10.5,26.42,1.49,54.81-1.9,80.99-.02,19.4,1.39,25.05,11.79,30.7,28.24,7.29,21.25,12.93,43.24,20.64,64.27l1.54.46,473.6-.06c17.6,1.32,33.15,17.39,31.35,35.44-12.61,47.02-26.86,93.65-40.4,140.42-6.83,23.59-12.5,51.64-20.71,74.2-5.21,14.31-17.83,25.54-33.22,27.72h-320.69ZM550.86,209.3l.08,125.85c5.18,23.36,37.29,22.11,39.93-1.92l-.08-124.85c-1.44-7.79-7.67-14.94-15.65-16.32-12.04-2.08-22.53,5.12-24.29,17.24ZM447.97,210.31l.09,122.84c2.85,25,35.96,25.13,39.92,1.09l-.08-125.85c-1.79-8.64-7.79-15.04-16.67-16.29-12.05-1.69-22.04,6.2-23.26,18.21ZM344.07,210.3l.08,124.85c4.94,22.78,36.61,22.87,39.94-.92l-.08-125.85c-1.79-8.64-7.79-15.04-16.67-16.29-12.31-1.73-21.65,6.15-23.27,18.21ZM576.14,562.26c20.31-6.79,21.27-35.81,1.74-44.24-25.14-10.84-45.24,20.66-26.7,39.19,6.16,6.16,16.9,7.74,24.97,5.04ZM327.92,528.83c-8.79,17.32,4.49,36.39,23.69,34.67,28.05-2.51,29.36-44.39-1.25-47.61-8.93-.94-18.41,5-22.43,12.93Z"/>
</svg>