<?xml version="1.0" encoding="UTF-8"?>
<svg id="Layer_1" data-name="Layer 1" xmlns="http://www.w3.org/2000/svg" viewBox="0 0 840 683.69">
  <defs>
    <style>
      .cls-1 {
        fill: #fff;
      }
    </style>
  </defs>
  <g>
    <path class="cls-1" d="M209.4,602.71v-1.28l3.39-1.65v-18.1l-8.97,21.24h-1.12l-8.93-21.24v18.1l3.35,1.65v1.28h-10.25v-1.28l3.6-1.65v-22.23l-3.6-1.65v-1.28h10.29l7.98,18.6,7.56-18.6h9.92v1.28l-3.55,1.65v22.23l3.55,1.65v1.28h-13.22Z"/>
    <path class="cls-1" d="M240.28,603.33c-8.1,0-13.8-5.7-13.8-13.8,0-9.05,6.28-15.33,15.21-15.33,8.31,0,14.17,5.45,14.17,13.88,0,9.09-6.28,15.25-15.58,15.25ZM241.1,576.51c-5.95,0-7.52,7.36-7.52,11.98,0,7.4,3.06,12.31,7.52,12.31,5.95,0,7.52-7.36,7.52-11.98,0-7.4-3.06-12.31-7.52-12.31ZM245.32,572.92l-3.76-2.52-3.6,2.52h-4.05l7.65-7.52,7.81,7.52h-4.05Z"/>
    <path class="cls-1" d="M269.99,577.54v24.75c0,3.39-.74,5.29-2.85,7.19-1.9,1.69-4.09,2.44-7.19,2.44-1.57,0-2.27-.08-3.8-.54v-4.92h3.47l1.32,3.06c1.9-.62,2.36-1.57,2.36-5v-26.98l-3.55-1.65v-1.28h13.84v1.28l-3.59,1.65Z"/>
    <path class="cls-1" d="M314.62,599.16c-2.85,2.44-6.45,3.55-11.41,3.55h-13.51v-1.28l3.6-1.61v-22.32l-3.6-1.61v-1.28h14.34c4.96,0,8.06.83,10.54,2.77,3.02,2.36,4.67,6.2,4.67,10.79s-1.57,8.43-4.63,10.99ZM309.41,579.45c-1.69-1.98-3.8-2.77-7.31-2.77h-2.15v23.97h2.4c3.14,0,5.29-.83,6.9-2.69,1.94-2.19,2.85-5.21,2.85-9.46s-.87-6.94-2.69-9.05Z"/>
    <path class="cls-1" d="M337.47,603.33c-8.1,0-13.8-5.7-13.8-13.8,0-9.05,6.28-15.33,15.21-15.33,8.31,0,14.17,5.45,14.17,13.88,0,9.09-6.28,15.25-15.58,15.25ZM338.3,576.51c-5.95,0-7.52,7.36-7.52,11.98,0,7.4,3.06,12.31,7.52,12.31,5.95,0,7.52-7.36,7.52-11.98,0-7.4-3.06-12.31-7.52-12.31Z"/>
    <path class="cls-1" d="M379.42,602.71v-1.28l3.39-1.65v-18.1l-8.97,21.24h-1.12l-8.93-21.24v18.1l3.35,1.65v1.28h-10.25v-1.28l3.6-1.65v-22.23l-3.6-1.65v-1.28h10.29l7.98,18.6,7.56-18.6h9.92v1.28l-3.55,1.65v22.23l3.55,1.65v1.28h-13.22Z"/>
    <path class="cls-1" d="M412.44,602.71v-1.28l3.14-1.61-2.56-7.36h-8.6l-3.02,7.36,3.26,1.61v1.28h-9.96v-1.28l3.18-1.61,11.28-25.62h3.26l10.21,25.62,3.22,1.61v1.28h-13.43ZM410,584.12c-.5-1.32-.66-1.86-.99-3.14l-3.72,9.17h6.94l-2.23-6.03ZM409.96,572.92h-3.43l5.33-6.28h7.15l-9.05,6.28Z"/>
    <path class="cls-1" d="M452.23,601.55s-2.52.66-3.35.83c-2.52.62-4.38.74-6.45.74-4.59,0-8.31-1.28-10.87-3.76-2.44-2.44-3.84-5.87-3.84-10.21,0-6.16,2.89-10.91,7.77-13.26,2.31-1.12,5.08-1.69,8.18-1.69s5.95.66,8.76,1.32v6.86h-2.4l-2.19-5.7c-.79-.04-1.65-.04-2.11-.04-3.43,0-5.91.91-7.77,2.93-2.07,2.19-3.14,5.37-3.14,9.22,0,3.39.7,6.07,2.02,8.02,1.69,2.52,4.5,3.84,8.31,3.84.91,0,1.49-.04,2.77-.25l2.36-5.66h2.48l-.54,6.82Z"/>
    <path class="cls-1" d="M456.45,602.71v-1.28l3.6-1.65v-22.23l-3.6-1.65v-1.28h13.84v1.28l-3.6,1.65v22.23l3.6,1.65v1.28h-13.84Z"/>
    <path class="cls-1" d="M506.73,603.02v-1.28l3.39-1.65v-18.1l-8.97,21.24h-1.12l-8.93-21.24v18.1l3.35,1.65v1.28h-10.25v-1.28l3.6-1.65v-22.23l-3.6-1.65v-1.28h10.29l7.98,18.6,7.56-18.6h9.92v1.28l-3.55,1.65v22.23l3.55,1.65v1.28h-13.22Z"/>
    <path class="cls-1" d="M539.75,603.02v-1.28l3.14-1.61-2.56-7.36h-8.6l-3.02,7.36,3.26,1.61v1.28h-9.96v-1.28l3.18-1.61,11.28-25.62h3.26l10.21,25.62,3.22,1.61v1.28h-13.43ZM533.76,572.9c-1.98,0-2.93-.83-2.93-2.48s.99-2.52,2.93-2.52c1.82,0,2.89.95,2.89,2.52s-1.03,2.48-2.89,2.48ZM537.32,584.42c-.5-1.32-.66-1.86-.99-3.14l-3.72,9.17h6.94l-2.23-6.03ZM542.73,572.9c-1.9,0-2.93-.87-2.93-2.52s1.12-2.48,3.06-2.48c1.74,0,2.81.91,2.81,2.48s-1.07,2.52-2.93,2.52Z"/>
    <path class="cls-1" d="M572.36,601.49c-1.65,1.12-3.84,1.74-6.41,1.74-3.22,0-5.41-.5-6.74-.79-1.57-.37-2.89-.7-2.89-.7v-6.9h2.31l2.19,5.66c1.45.25,2.23.33,2.89.33,2.07,0,3.6-.54,4.46-1.45.58-.7.91-1.57.91-2.6,0-2.19-1.61-3.47-3.31-4.59l-4.09-2.69c-2.02-1.32-2.44-1.61-2.89-2.11-1.65-1.53-2.48-3.22-2.48-5.04,0-5.58,5.29-7.85,10.12-7.85,1.53,0,3.47.25,5.87.83l2.44.62v6.74h-2.31l-2.15-5.5c-1.24-.25-1.94-.29-2.89-.29-3.35,0-5.04,1.2-5.04,3.6,0,1.61.45,2.11,3.47,4.17l4.05,2.73c2.27,1.57,3.31,2.36,4.13,3.31,1.03,1.2,1.57,2.73,1.57,4.55,0,2.64-1.2,4.83-3.22,6.24Z"/>
    <path class="cls-1" d="M579.88,603.02v-1.28l3.6-1.65v-22.23l-3.6-1.65v-1.28h13.84v1.28l-3.6,1.65v22.23l3.6,1.65v1.28h-13.84Z"/>
    <path class="cls-1" d="M613.52,603.02v-1.28l3.14-1.61-2.56-7.36h-8.6l-3.02,7.36,3.26,1.61v1.28h-9.96v-1.28l3.18-1.61,11.28-25.62h3.26l10.21,25.62,3.22,1.61v1.28h-13.43ZM611.08,584.42c-.5-1.32-.66-1.86-.99-3.14l-3.72,9.17h6.94l-2.23-6.03Z"/>
    <path class="cls-1" d="M648.36,603.02l-8.8-13.39h-.78v10.46l3.55,1.65v1.28h-13.31v-1.28l3.6-1.65v-22.27l-3.6-1.61v-1.28h13.64c3.51,0,5.5.41,7.02,1.53,1.57,1.16,2.6,3.22,2.6,5.41,0,3.84-2.15,6.36-6.16,7.31l7.48,10.91,3.51,1.65v1.28h-8.76ZM640.92,576.99h-2.15v10.95h2.27c2.89,0,4.55-2.11,4.55-5.74,0-3.14-1.28-5.21-4.67-5.21Z"/>
  </g>
  <g>
    <path class="cls-1" d="M432.57,348.26l51.76-36.25-4.77-3.96c-16.26-13.66-32.54-29.87-48.38-48.16l-2.8-3.26-29.12,20.4,5.44,7.81,22.12-15.49c13.74,15.62,27.82,29.71,41.93,41.96l-46.41,32.5c-27.62-25.57-54.78-57.01-78.67-91.14-2.72-3.9-5.51-8-8.5-12.53l27.55-19.29,15.08-10.58,2.59-1.8c3.01,4.57,5.77,8.62,8.49,12.51,5.12,7.3,10.47,14.58,15.92,21.64l7.53-5.81c-5.37-6.94-10.63-14.09-15.67-21.29-3.38-4.85-6.86-9.98-10.81-16.12l-.18-.25c-20.31-31.28-36.76-63.49-47.57-93.15l-2.12-5.82-26.4,18.46,1.33,3.46c11.11,29.14,27.24,60.41,46.63,90.74l-35.4,24.8,2.51,3.85c4.04,6.17,7.7,11.6,11.21,16.62,23.5,33.59,50.18,64.57,77.39,90.15h-97.91v9.52h210.11v-9.52h-92.89ZM321.15,122.18l10.16-7.12c10.56,27.47,25.64,56.81,43.9,85.42l-9.89,6.92c-18.21-28.47-33.39-57.76-44.17-85.21"/>
    <polygon class="cls-1" points="213.26 358.95 186.22 358.95 186.22 357.43 190.48 355.52 190.48 329.08 186.22 327.16 186.22 325.64 213.06 325.64 213.06 333.63 210.42 333.63 207.92 328.1 198.37 328.1 198.37 340.83 206.05 340.83 207.92 336.37 210.56 336.37 210.56 347.54 207.92 347.54 206.05 343.28 198.37 343.28 198.37 356.5 208.41 356.5 211.3 350.97 213.94 350.97 213.26 358.95"/>
    <path class="cls-1" d="M241.69,357.14c-1.96,1.32-4.55,2.06-7.59,2.06-3.82,0-6.41-.59-7.98-.93-1.86-.44-3.43-.83-3.43-.83v-8.18h2.75l2.59,6.71c1.72.29,2.64.39,3.43.39,2.45,0,4.26-.64,5.29-1.72.69-.83,1.08-1.86,1.08-3.08,0-2.6-1.91-4.12-3.92-5.44l-4.85-3.18c-2.4-1.56-2.89-1.91-3.43-2.5-1.96-1.81-2.94-3.82-2.94-5.97,0-6.61,6.27-9.31,12-9.31,1.81,0,4.12.29,6.96.98l2.89.73v7.98h-2.74l-2.55-6.51c-1.48-.29-2.31-.35-3.43-.35-3.97,0-5.97,1.42-5.97,4.26,0,1.92.54,2.5,4.11,4.95l4.8,3.23c2.69,1.86,3.92,2.79,4.9,3.92,1.22,1.42,1.86,3.24,1.86,5.39,0,3.13-1.42,5.73-3.82,7.4"/>
    <polygon class="cls-1" points="277.38 334.85 274.88 328.09 269.49 328.09 269.49 355.48 274.93 357.43 274.93 358.95 256.07 358.95 256.07 357.43 261.51 355.48 261.51 328.09 256.02 328.09 253.58 334.85 250.83 334.85 250.83 325.65 280.12 325.65 280.12 334.85 277.38 334.85"/>
    <path class="cls-1" d="M288.04,359.44c-2.84,0-4.12-.98-4.12-3.33s1.33-3.33,4.12-3.33,4.06,1.08,4.06,3.23c0,2.4-1.22,3.43-4.06,3.43"/>
    <path class="cls-1" d="M544.33,358.95v-1.52l5.53-1.96v-22.53l-8.72,1.62v-1.9c3.33-.98,5.78-1.81,7.79-2.75,2.06-.93,3.68-1.91,5.2-3.23h3.62v28.79l5.49,1.96v1.52h-18.9Z"/>
    <path class="cls-1" d="M588.19,355.03c-2.94,2.75-7.05,4.16-12.1,4.16-2.4,0-4.46-.24-7.2-.83l.39-2.45c1.02.05,1.42.05,2.2.05,4.9,0,7.64-.64,9.99-2.45,2.16-1.72,3.83-4.46,3.83-7.64-2.75.92-4.12,1.17-6.37,1.17-6.41,0-10.48-3.72-10.48-9.54,0-6.76,4.7-10.83,12.59-10.83,3.97,0,7.1,1.12,9.26,3.28,2.31,2.35,3.53,5.88,3.53,10.44,0,5.97-2.06,11.37-5.64,14.64M581.04,329.37c-2.79,0-4.36,3.29-4.36,7.49,0,4.71,1.27,6.71,4.56,6.71,1.46,0,2.94-.24,4.31-.68.04-1.08.09-2.65.09-3.48,0-4.31,0-10.04-4.6-10.04"/>
    <path class="cls-1" d="M619.96,355.03c-2.94,2.75-7.05,4.16-12.1,4.16-2.39,0-4.45-.24-7.2-.83l.39-2.45c1.02.05,1.42.05,2.2.05,4.9,0,7.64-.64,9.99-2.45,2.16-1.72,3.83-4.46,3.83-7.64-2.75.92-4.12,1.17-6.37,1.17-6.41,0-10.48-3.72-10.48-9.54,0-6.76,4.7-10.83,12.59-10.83,3.97,0,7.1,1.12,9.26,3.28,2.31,2.35,3.53,5.88,3.53,10.44,0,5.97-2.06,11.37-5.64,14.64M612.81,329.37c-2.79,0-4.36,3.29-4.36,7.49,0,4.71,1.27,6.71,4.56,6.71,1.46,0,2.94-.24,4.31-.68.05-1.08.1-2.65.1-3.48,0-4.31,0-10.04-4.6-10.04"/>
    <path class="cls-1" d="M643.4,359.44c-1.91,0-3.53-.15-5.49-.59-1.47-.35-3.03-.83-5.04-1.48v-8.37h2.74l2.7,7.1c1.22.1,1.91.15,2.49.15,4.8,0,7.5-2.6,7.5-7.25,0-5.64-3.43-6.96-8.57-6.96-1.96,0-3.77.14-6.13.39v-15.33h21.85v5.73h-17.59v6.03c2.4-.45,3.43-.54,5.44-.54,8.27,0,13.12,3.82,13.12,10.24s-5.19,10.87-13.03,10.87"/>
  </g>
  <g>
    <path class="cls-1" d="M136.55,461.09h-35.9c-1.76,0-2.99,1.44-2.99,2.73v12.68c0,1.32.94,2.73,2.99,2.73h16.6v4.3c0,14.1-6.54,21.25-19.44,21.25s-20.04-7.1-20.04-21.1v-33.15c0-14.19,6.36-21.08,19.44-21.08,9.41,0,15.24,4.42,17.83,13.51.38,1.24,1.03,2.1,1.94,2.57.92.47,2.07.49,3.34.07l14.18-3.81h.05c1.13-.4,1.96-1.08,2.4-1.99.5-1.03.5-2.27.01-3.69-5.87-18.19-19.19-27.42-39.6-27.42-12.95,0-23.78,3.66-31.32,10.57-7.4,6.79-11.31,16.39-11.31,27.76v39.11c0,12.59,3.73,22.43,11.08,29.23,7.4,6.85,18.17,10.32,31.99,10.32,12.3,0,22.83-3.82,30.47-11.05,7.46-7.06,11.57-17.13,11.57-28.34v-22.31c0-1.73-1.32-2.89-3.3-2.89Z"/>
    <path class="cls-1" d="M213.98,413.35c-.54-1.77-1.48-3.59-4.31-3.59h-18.85c-1.29,0-3.04.62-4.01,3.58l-33.49,106.9c-.33.93-.22,1.95.29,2.68.42.6,1.05.92,1.77.92h15.86c2,0,3.07-.86,3.7-2.98l7.62-25.43h33.41l7.02,25.39c.38,1.81,1.81,3.02,3.58,3.02h17.65c.7,0,1.34-.35,1.77-.96.49-.7.6-1.63.29-2.48l-32.29-107.07ZM210.62,475.91h-22.24l11.53-39.12,10.7,39.12Z"/>
    <path class="cls-1" d="M392.12,410.53h-35.74v110.43c0,1.6,1.21,2.89,2.69,2.89h17.65c1.49,0,2.7-1.3,2.7-2.89v-33.31h12.41c12.93,0,22.92-3.26,29.68-9.68,6.41-6.08,9.66-14.7,9.66-25.6v-6.41c0-10.92-3.22-19.56-9.56-25.67-6.72-6.48-16.64-9.76-29.48-9.76ZM407.97,447.78v2.9c0,12.12-4.45,16.21-17.65,16.21h-10.91v-35.62h10.91c13.19,0,17.65,4.17,17.65,16.51Z"/>
    <path class="cls-1" d="M494.92,413.35c-.54-1.78-1.47-3.59-4.31-3.59h-18.85c-1.3,0-3.05.62-4,3.58l-33.5,106.91c-.33.91-.23,1.93.28,2.66.41.6,1.06.94,1.78.94h15.85c1.99,0,3.07-.86,3.71-2.98l7.61-25.43h33.42l7.02,25.39c.36,1.78,1.82,3.03,3.57,3.03h17.65c.7,0,1.34-.35,1.77-.96.49-.7.6-1.63.29-2.48l-32.29-107.06ZM491.57,475.91h-22.24l11.53-39.13,10.71,39.13Z"/>
    <path class="cls-1" d="M605.66,480.97c11.85-5.77,17.38-15.18,17.38-29.52v-8.1c0-10.1-2.9-18.09-8.62-23.73-6.11-6.03-15.19-9.09-26.98-9.09h-40.68v110.43c0,1.59,1.21,2.89,2.7,2.89h17.64c1.49,0,2.7-1.3,2.7-2.89v-36.82h12.54l18.35,37.77c.6,1.22,1.8,1.94,3.21,1.94h20.49c.74,0,1.44-.39,1.83-1.01.4-.64.42-1.45.04-2.22l-20.58-39.64ZM569.8,431.27h14.06c11.62,0,16.15,4.03,16.15,14.37v3.36c0,10.67-4.57,14.83-16.3,14.83h-13.9v-32.56Z"/>
    <path class="cls-1" d="M788.97,520.62l-32.69-64.8,31.71-41.31c.65-.81.82-1.97.42-2.82-.21-.43-.75-1.16-2.05-1.16h-19.44c-2.09,0-3.02.91-4.04,2.12l-33.8,43.48v-42.71c0-1.79-1.4-2.89-2.69-2.89h-17.5c-1.31,0-2.85.8-2.85,3.04v107.39c0,1.79,1.4,2.89,2.7,2.89h17.65c1.32,0,2.69-1.08,2.69-2.89v-33.96l11.2-14.26,23.12,49.16c.63,1.29,1.71,1.95,3.21,1.95h20.49c.79,0,1.48-.37,1.86-.98.4-.64.4-1.45,0-2.25Z"/>
    <path class="cls-1" d="M652.42,521.73c0,1.39,1.08,2.17,2.01,2.17h18.13c1.39,0,2.17-.93,2.17-2.17v-87.65l-22.31-13.41v101.06Z"/>
    <path class="cls-1" d="M674.73,412.65c0-1.24-.93-2.17-2.17-2.17h-18.13c-.93,0-2.01.77-2.01,2.17v2.66l22.31,13.41v-16.07Z"/>
    <g>
      <path class="cls-1" d="M308.79,410.63c-4.22-1.25-9.15-1.98-14.92-1.98-4.39,0-8.63.66-12.55,1.92l13.79,8.25,13.69-8.19Z"/>
      <path class="cls-1" d="M305.07,457.33c-1.05-.47-2.06-.93-3.04-1.36-14.43-6.47-20.4-9.14-20.4-16.09s4.62-10.99,12.68-10.99c8.76,0,14.13,3.48,16.91,10.95.4,1.04,1.05,1.77,1.87,2.11.53.22,1.4.36,2.54-.15l13.39-4.86c2.25-.77,2.95-2.14,2.26-4.46-2.35-7.1-7.17-15.09-17.04-19.78l-19.14,11.45-19.09-11.42c-2.36,1.19-4.55,2.63-6.52,4.31-6.8,5.78-10.39,13.67-10.39,22.84,0,18.69,10.55,26.75,31.33,35.89,13.57,5.96,19.25,9.72,19.25,17.6,0,8.73-8.92,11.89-14.92,11.89-10.1,0-15.84-3.8-18.07-11.92-.39-1.6-.96-2.56-1.81-3.02-.97-.53-2.08-.27-3.03.05l-13.43,4.57c-1.82.61-2.66,2.29-2.12,4.25,1.91,7.55,5.65,13.62,11.11,18.05,6.63,5.38,15.64,8.11,26.77,8.11s21.27-3.27,28.29-9.44c6.76-5.95,10.49-14.39,10.49-23.76.16-18.36-10.55-26.94-27.89-34.83Z"/>
    </g>
  </g>
</svg>