<?xml version="1.0" encoding="UTF-8"?>
<svg id="Layer_1" data-name="Layer 1" xmlns="http://www.w3.org/2000/svg" viewBox="0 0 300 300">
  <defs>
    <style>
      .cls-1 {
        fill: #283995;
      }
    </style>
  </defs>
  <path class="cls-1" d="M101.95,42.84c28.04,4.97,54.56,5.2,81.12,1.03,2.75-.43,5.98-2.32,6.17,3.16.09,2.49,2.88,1.14,4.5,1.08,4.84-.18,9.69-.72,14.53-.63,25.97.51,42.95,18.34,42.2,44.37-.39,13.46-4.23,26.28-7.91,39.09-1.84,6.4-3.8,12.78-6.08,19.04-4.79,13.15-7.41,26.18-6.57,40.64,1.83,31.4-13.47,56.4-33.82,78.79-18.37,20.2-82.63,19.67-100.06,2.01-44.21-44.79-47.71-110.47-6.48-147.67,20.97-18.92,25.18-41.76,16.56-67.83-1.32-3.98-2.54-8-4.15-13.07ZM222.33,149.98c1.48-4.91,3.13-9.78,4.41-14.74,4.02-15.5,9.39-30.79,9.29-47.05-.1-14.85-8.93-24.27-23.67-26.22-5.77-.77-11.51-.49-17.19.53-10.36,1.87-13,4.82-13.94,15.58-1.22,14.01,3.16,26.51,12.08,37,9.72,11.44,21.3,21.34,29.02,34.9Z"/>
  <path class="cls-1" d="M108.02,34.59c24.1-7.42,48.22-7.37,72.35-.4-24.1,6.48-48.22,5.38-72.35.4Z"/>
</svg>