<?xml version="1.0" encoding="UTF-8"?>
<svg id="Layer_1" data-name="Layer 1" xmlns="http://www.w3.org/2000/svg" viewBox="0 0 300 300">
  <defs>
    <style>
      .cls-1 {
        fill: #283995;
      }
    </style>
  </defs>
  <path class="cls-1" d="M15,107.52c90.32,24.66,179.59,25.11,270,.16-9.39,48.67-39.92,82.04-83.01,105.59.36,1.97,9.15,10.72,1.95,14.07-8.34,3.88-17.4,5.24-26.43,6.27-24.26,2.78-48.42,2.59-72.33-3.08-2.35-.56-4.71-1.22-6.95-2.13-3.05-1.23-7.09-2.08-7.64-5.73-.59-3.94,7.4-8.25,8.39-9.35-44.21-22.95-74.11-56.93-83.97-105.82Z"/>
  <path class="cls-1" d="M151.06,116.28c-33.73.06-67.24-2.33-100.33-9.14-9.51-1.96-18.89-4.58-27.47-9.27-8.35-4.56-8.43-8.53-.32-13.66,9.12-5.77,19.48-8.39,29.9-10.33,67.84-12.63,135.57-12.8,203.08,2.45,7.1,1.6,13.98,4.1,20.28,7.84,8.74,5.19,8.84,9.24-.07,14.02-14.11,7.57-29.72,10.28-45.29,12.65-26.42,4.03-53.06,5.4-79.78,5.44Z"/>
</svg>