<?xml version="1.0" encoding="UTF-8"?>
<svg id="Layer_1" data-name="Layer 1" xmlns="http://www.w3.org/2000/svg" viewBox="0 0 300 300">
  <defs>
    <style>
      .cls-1 {
        fill: #283995;
      }
    </style>
  </defs>
  <path class="cls-1" d="M202.95,216.69c18.73-14.93,34.41-30.13,47.34-48.07,6.05-8.4,10.85-17.44,13.25-27.59.67-2.84,1.18-5.77,1.28-8.68.48-14.06-9.83-21.93-23.24-17.35-5.88,2.01-11.34,5.27-17.4,8.17,0-1.42-.08-2.36.01-3.28,1.87-18.37,2.47-18.88,21.36-18.68,23.25.25,35.5,15.18,31.31,38.1-3.08,16.81-11.36,31.05-21.58,44.41-13.48,17.62-29.38,32.82-47.08,46.03-6.32,4.72-10.51,9.91-11.03,17.69-.53,7.91-5.44,11.93-12.32,13.56-22.5,5.32-45.05,5.45-67.47-.58-5.94-1.6-9.3-5.59-10.39-11.92-8.05-46.99-15.97-94-23.04-141.15-.94-6.25.52-6.5,6.3-5.17,40.61,9.33,81.41,10.04,122.12.71,6.17-1.41,7.46-.77,6.49,5.53-4.8,31.17-15.06,102.11-15.9,108.27Z"/>
  <path class="cls-1" d="M151.44,57.19c18.33.44,36.64,1.06,54.55,5.64,2.6.66,5.19,1.4,7.7,2.34,9.45,3.52,10.43,5.26,8.78,15.17-2.47,14.79-2.4,15.14-16.97,17.81-37.44,6.87-74.86,6.63-112.11-1.46-3.91-.85-9.05-.75-10.88-4.94-2.63-6.02-4.19-12.63-3.32-19.27.53-4.04,4.47-5.55,7.89-6.93,10.55-4.25,21.74-5.64,32.9-6.75,10.45-1.04,20.93-2.04,31.48-1.61ZM98.48,75.69c34.69,8.96,69.47,8.41,104.32.9-34.68-9.31-69.47-7.97-104.32-.9Z"/>
</svg>