<?xml version="1.0" encoding="UTF-8"?>
<svg id="Layer_1" data-name="Layer 1" xmlns="http://www.w3.org/2000/svg" viewBox="0 0 300 300">
  <defs>
    <style>
      .cls-1 {
        fill: #283995;
      }
    </style>
  </defs>
  <path class="cls-1" d="M15.12,150.59C14.49,75.26,74.25,15.35,150.54,14.85c74.3-.49,133.77,58.7,134.34,133.72.57,74.34-59.45,135.9-133.16,136.59-75.89.7-135.95-58.46-136.59-134.56ZM150.7,253.56c57.89-.24,103.49-45.82,103.39-103.34-.11-58.57-46.19-104.51-104.52-104.2-57.96.31-103.58,46.37-103.44,104.44.14,58,46.13,103.34,104.57,103.1Z"/>
  <path class="cls-1" d="M151.3,244.2c-53.35.2-95.93-41.22-95.96-93.34-.03-53.77,40.95-94.84,94.99-95.22,52.06-.36,94.25,41.53,94.53,93.86.28,52.35-41.37,94.51-93.56,94.7Z"/>
</svg>