<?xml version="1.0" encoding="UTF-8"?>
<svg id="Layer_1" data-name="Layer 1" xmlns="http://www.w3.org/2000/svg" viewBox="0 0 300 300">
  <defs>
    <style>
      .cls-1 {
        fill: #283995;
      }
    </style>
  </defs>
  <path class="cls-1" d="M118.6,276.4c-6.15.01-11.05-1.95-11.49-8.84-1.73-26.65-14.01-49.9-23.55-74.03-6.15-15.56-11.92-31.12-10.07-48.36,1.14-10.62,4.5-20.05,13.15-26.95,3.95-3.15,7.66-4,13.21-2.73,38.3,8.74,76.73,9.96,114.88-1.09,3.53-1.02,5.82,0,8.36,1.61,11.03,6.97,14.89,17.76,15.97,30.06,1.45,16.55-3.69,31.71-9.76,46.65-8.19,20.16-18.29,39.61-21.99,61.38-.15.89-.41,1.77-.55,2.67q-3.17,19.82-23.64,19.8c-9.09,0-52.1-.18-64.52-.16Z"/>
  <path class="cls-1" d="M105.56,37.86c17.6,3.03,34.09,4.85,50.7,4.63,16.34-.22,32.67-.77,49.39-4.79-.25,7.5-3.19,13.69-5.89,19.77-7.23,16.22-4.84,30.78,7.02,43.69,4.32,4.7,3.68,7.07-2.36,8.32-32.17,6.68-64.32,7.01-96.47-.27-5.81-1.32-6.22-3.38-2.09-7.63,11.75-12.07,14.71-25.93,7.97-41.71-2.93-6.85-5.26-13.96-8.26-22.02Z"/>
  <path class="cls-1" d="M110.45,27.61c30.44-7.64,60.97-7.72,92.73-.93-11.73,10.07-74.74,10.74-92.73.93Z"/>
</svg>