<?xml version="1.0" encoding="UTF-8"?>
<svg id="Calque_1" data-name="Calque 1" xmlns="http://www.w3.org/2000/svg" viewBox="0 0 40 40">
  <defs>
    <style>
      .cls-1 {
        fill: #283995;
      }
    </style>
  </defs>
  <path class="cls-1" d="M20,5.56c-7.97,0-14.44,6.47-14.44,14.44s6.47,14.44,14.44,14.44,14.44-6.47,14.44-14.44-6.47-14.44-14.44-14.44ZM12.04,14.12h15.92c.23,0,.45.08.63.22l-8.59,6.91-8.59-6.91c.18-.14.39-.22.63-.22ZM10.96,24.72v-9.29l5.14,4.14-5.11,5.43c-.02-.09-.03-.18-.03-.28ZM27.96,25.88h-15.92c-.1,0-.19-.02-.28-.04l5.22-5.56,3.01,2.43,3.01-2.43,5.22,5.56c-.09.03-.18.04-.28.04ZM29.04,24.72c0,.1-.01.19-.03.28l-5.11-5.43,5.14-4.14v9.29Z"/>
</svg>