<?xml version="1.0" encoding="UTF-8"?>
<svg id="Calque_1" data-name="Calque 1" xmlns="http://www.w3.org/2000/svg" viewBox="0 0 87.66 87.66">
  <defs>
    <style>
      .cls-1 {
        fill: #283995;
      }
    </style>
  </defs>
  <path class="cls-1" d="M56.37,22.08h-25.08c-5.08,0-9.21,4.13-9.21,9.21v25.08c0,5.08,4.13,9.21,9.21,9.21h25.08c5.08,0,9.21-4.13,9.21-9.21v-25.08c0-5.08-4.13-9.21-9.21-9.21ZM43.83,57.31c-7.43,0-13.48-6.05-13.48-13.48s6.05-13.48,13.48-13.48,13.48,6.05,13.48,13.48-6.05,13.48-13.48,13.48ZM57.69,32.84c-1.71,0-3.1-1.39-3.1-3.1s1.39-3.1,3.1-3.1,3.1,1.39,3.1,3.1-1.39,3.1-3.1,3.1Z"/>
  <path class="cls-1" d="M61.68,8.22H25.98c-9.81,0-17.76,7.95-17.76,17.76v35.7c0,9.81,7.95,17.76,17.76,17.76h35.7c9.81,0,17.76-7.95,17.76-17.76V25.98c0-9.81-7.95-17.76-17.76-17.76ZM70.07,56.37c0,7.55-6.15,13.7-13.7,13.7h-25.08c-7.55,0-13.7-6.15-13.7-13.7v-25.08c0-7.55,6.15-13.7,13.7-13.7h25.08c7.55,0,13.7,6.15,13.7,13.7v25.08Z"/>
  <path class="cls-1" d="M43.83,34.84c-4.96,0-8.99,4.03-8.99,8.99s4.03,8.99,8.99,8.99,8.99-4.03,8.99-8.99-4.03-8.99-8.99-8.99Z"/>
</svg>