<?xml version="1.0" encoding="UTF-8"?>
<svg id="Calque_1" data-name="Calque 1" xmlns="http://www.w3.org/2000/svg" viewBox="0 0 87.66 87.66">
  <defs>
    <style>
      .cls-1 {
        fill: #283995;
      }
    </style>
  </defs>
  <path class="cls-1" d="M18.29,79.44c-2.36,0-4.39-.63-6.07-1.9-1.68-1.27-2.52-2.79-2.52-4.57v-35.61c0-1.78.84-3.3,2.52-4.57s3.71-1.9,6.07-1.9h12.89v6.47h-12.89v35.61h51.56v-35.61h-12.89v-6.47h12.89c2.36,0,4.39.63,6.07,1.9s2.52,2.79,2.52,4.57v35.61c0,1.78-.84,3.3-2.52,4.57-1.68,1.27-3.71,1.9-6.07,1.9H18.29ZM39.78,56.78V20.6l-6.87,5.18-6.02-4.61,17.19-12.95,17.19,12.95-6.02,4.61-6.87-5.18v36.17h-8.59Z"/>
</svg>