<?xml version="1.0" encoding="UTF-8"?>
<svg id="Calque_1" data-name="Calque 1" xmlns="http://www.w3.org/2000/svg" viewBox="0 0 87.66 87.66">
  <defs>
    <style>
      .cls-1 {
        fill: #283995;
      }
    </style>
  </defs>
  <path class="cls-1" d="M44.26,24.02c-10.03,0-18.31,7.62-19.26,17.34-.06.61-.1,1.24-.1,1.86,0,4.2,1.37,8.09,3.69,11.26l-2.41,7.13,7.44-2.37c3.06,2.02,6.71,3.18,10.65,3.18,10.67,0,19.36-8.61,19.36-19.2,0-.51-.02-1-.06-1.5-.78-9.89-9.13-17.71-19.29-17.71ZM55.55,51.15c-.46,1.31-2.77,2.58-3.8,2.66-1.03.1-1.03.84-6.78-1.39-5.73-2.25-9.35-8.09-9.63-8.46-.22-.28-1.44-1.91-2.02-3.88-.17-.61-.29-1.26-.29-1.91,0-2.76,1.45-4.12,1.97-4.68.52-.56,1.13-.7,1.51-.7s.75.05,1.08.05.81-.19,1.27.93c.47,1.12,1.61,3.88,1.75,4.16.14.28.24.6.04.98-.13.27-1.15,1.66-1.41,1.92-.28.28-.57.58-.25,1.14.32.56,1.47,2.39,3.14,3.87,2.16,1.92,3.98,2.5,4.54,2.78.57.28.89.24,1.23-.14.32-.37,1.41-1.63,1.79-2.19.38-.56.75-.47,1.27-.28.52.18,3.29,1.54,3.86,1.82.56.28.94.42,1.08.65.14.24.14,1.36-.33,2.66Z"/>
  <path class="cls-1" d="M60.85,8.22H26.81c-10.25,0-18.59,8.34-18.59,18.59v34.03c0,10.25,8.34,18.59,18.59,18.59h34.03c10.25,0,18.59-8.34,18.59-18.59V26.81c0-10.25-8.34-18.59-18.59-18.59ZM44.26,66.07c-4.03,0-7.82-1.03-11.12-2.85l-12.75,4.05,4.15-12.25c-2.09-3.45-3.3-7.48-3.3-11.8,0-.33.01-.67.02-1,.54-12.16,10.63-21.84,23-21.84s22.7,9.91,23.01,22.27c.01.19.01.39.01.58,0,12.62-10.3,22.85-23.02,22.85Z"/>
</svg>